<svg width="24" height="24" viewBox="0 0 24 24" fill="none" xmlns="http://www.w3.org/2000/svg" data-reactroot="">
<path fill="#c37e28" d="M19.34 22H4.66C3.19 22 2 20.81 2 19.34V4.66C2 3.19 3.19 2 4.66 2H19.33C20.81 2 22 3.19 22 4.66V19.33C22 20.81 20.81 22 19.34 22Z" undefined="1"></path>
<path fill="#c37e28" d="M12 16C14.2091 16 16 14.2091 16 12C16 9.79086 14.2091 8 12 8C9.79086 8 8 9.79086 8 12C8 14.2091 9.79086 16 12 16Z" undefined="1"></path>
<path stroke-linejoin="round" stroke-width="1" stroke="white" d="M12 16C14.2091 16 16 14.2091 16 12C16 9.79086 14.2091 8 12 8C9.79086 8 8 9.79086 8 12C8 14.2091 9.79086 16 12 16Z"></path>
<path fill="#c37e28" d="M18 5.5C18.2761 5.5 18.5 5.27614 18.5 5C18.5 4.72386 18.2761 4.5 18 4.5C17.7239 4.5 17.5 4.72386 17.5 5C17.5 5.27614 17.7239 5.5 18 5.5Z" undefined="1"></path>
<path stroke-linejoin="round" stroke-width="1" stroke="white" d="M18 5.5C18.2761 5.5 18.5 5.27614 18.5 5C18.5 4.72386 18.2761 4.5 18 4.5C17.7239 4.5 17.5 4.72386 17.5 5C17.5 5.27614 17.7239 5.5 18 5.5Z"></path>
</svg>
