<?xml version="1.0" encoding="UTF-8" standalone="no"?><!DOCTYPE svg PUBLIC "-//W3C//DTD SVG 1.1//EN" "http://www.w3.org/Graphics/SVG/1.1/DTD/svg11.dtd"><svg width="100%" height="100%" viewBox="0 0 891 368" version="1.1" xmlns="http://www.w3.org/2000/svg" xmlns:xlink="http://www.w3.org/1999/xlink" xml:space="preserve" xmlns:serif="http://www.serif.com/" style="fill-rule:evenodd;clip-rule:evenodd;stroke-linejoin:round;stroke-miterlimit:1.5;"><rect id="Artboard1" x="-110" y="-341" width="1080" height="1080" style="fill:none;"/><g id="Artboard11" serif:id="Artboard1"><g><path d="M105.997,54.235l-0,122.781l-100.646,-59.659l100.646,-63.122Z" style="fill:#f59b43;"/><path d="M114.765,54.217l0,122.975l100.646,-59.659l-100.646,-63.316Z" style="fill:#f59b43;"/><path d="M105.468,187.936l-0,127.803l-99.835,-62.243l0,-125.992l99.835,60.432Z" style="fill:#67211b;"/><path d="M114.106,187.936l0,127.803l100.93,-63.78l0,-124.016l-100.93,59.993Z" style="fill:#67211b;"/></g><path d="M266.334,3.897l0,362.162" style="fill:none;stroke:#67211b;stroke-width:4.17px;"/><g><g><g><path d="M345.91,77.499l21.046,0l0,144.227l-21.046,-0l0,-144.227Zm22.078,70.772l65.82,-70.772l25.585,0l-65.82,70.772l69.947,73.455l-25.586,-0l-69.946,-73.455Z" style="fill:#67211b;fill-rule:nonzero;"/><path d="M495.914,77.499l57.979,0c15.406,0 27.236,3.714 35.489,11.142c8.254,7.428 12.38,18.295 12.38,32.601c0,10.592 -2.82,19.567 -8.459,26.926c-5.64,7.359 -13.618,12.346 -23.935,14.959l31.775,58.599l-21.871,-0l-30.743,-56.948l-31.569,0l-0,56.948l-21.046,-0l-0,-144.227Zm54.472,69.534c9.216,0 16.54,-2.166 21.974,-6.499c5.433,-4.333 8.15,-10.764 8.15,-19.292c0,-9.354 -2.648,-16.025 -7.944,-20.014c-5.296,-3.989 -12.689,-5.984 -22.18,-5.984l-33.426,0l-0,51.789l33.426,0Z" style="fill:#67211b;fill-rule:nonzero;"/><path d="M636.22,77.499l66.232,0c12.793,0 22.697,3.302 29.712,9.904c7.016,6.603 10.523,16.232 10.523,28.887c0,7.153 -1.685,13.446 -5.055,18.879c-3.37,5.434 -7.806,9.457 -13.308,12.071c15.406,4.539 23.109,15.75 23.109,33.632c-0,8.391 -1.823,15.647 -5.468,21.768c-3.645,6.121 -8.631,10.833 -14.959,14.134c-6.327,3.301 -13.343,4.952 -21.046,4.952l-69.74,-0l-0,-144.227Zm63.55,61.9c6.74,0 12.036,-1.857 15.888,-5.571c3.851,-3.714 5.777,-9.216 5.777,-16.506c0,-8.391 -1.891,-14.272 -5.674,-17.642c-3.783,-3.37 -9.595,-5.055 -17.435,-5.055l-41.06,0l-0,44.774l42.504,0Zm1.444,65.201c8.116,0 14.306,-1.788 18.57,-5.364c4.265,-3.577 6.397,-9.698 6.397,-18.364c-0,-8.666 -2.236,-14.856 -6.706,-18.57c-4.471,-3.714 -11.176,-5.571 -20.118,-5.571l-42.091,0l-0,47.869l43.948,0Z" style="fill:#67211b;fill-rule:nonzero;"/><path d="M346.515,292.113l0,-48.832l16.507,-0c3.897,-0 7.313,0.642 10.248,1.925c2.934,1.284 5.376,3.027 7.325,5.228c1.948,2.2 3.404,4.78 4.367,7.737c0.963,2.957 1.444,6.11 1.444,9.457c0,3.714 -0.55,7.073 -1.65,10.076c-1.101,3.003 -2.66,5.571 -4.677,7.703c-2.018,2.132 -4.471,3.783 -7.359,4.952c-2.889,1.169 -6.122,1.754 -9.698,1.754l-16.507,-0Zm35.077,-24.485c-0,-2.935 -0.413,-5.628 -1.238,-8.081c-0.825,-2.453 -2.029,-4.574 -3.611,-6.362c-1.582,-1.789 -3.519,-3.176 -5.812,-4.161c-2.292,-0.986 -4.929,-1.479 -7.909,-1.479l-11.761,-0l0,40.304l11.761,-0c3.026,-0 5.697,-0.516 8.013,-1.548c2.315,-1.032 4.252,-2.453 5.811,-4.264c1.559,-1.811 2.74,-3.943 3.542,-6.396c0.803,-2.454 1.204,-5.124 1.204,-8.013Z" style="fill:#67211b;fill-rule:nonzero;"/><path d="M432.625,287.849l-0,4.264l-32.807,-0l-0,-48.832l32.188,-0l-0,4.264l-27.442,-0l-0,17.607l23.934,-0l0,4.058l-23.934,-0l-0,18.639l28.061,-0Z" style="fill:#67211b;fill-rule:nonzero;"/><path d="M445.555,243.281l17.469,42.848l17.332,-42.848l5.09,-0l-20.358,48.832l-4.196,-0l-20.358,-48.832l5.021,-0Z" style="fill:#67211b;fill-rule:nonzero;"/><path d="M529.188,287.849l0,4.264l-32.807,-0l0,-48.832l32.188,-0l0,4.264l-27.442,-0l0,17.607l23.935,-0l-0,4.058l-23.935,-0l0,18.639l28.061,-0Z" style="fill:#67211b;fill-rule:nonzero;"/><path d="M542.462,292.113l0,-48.832l4.746,-0l0,44.568l28.268,-0l-0,4.264l-33.014,-0Z" style="fill:#67211b;fill-rule:nonzero;"/><path d="M603.674,292.457c-3.393,-0 -6.499,-0.7 -9.319,-2.098c-2.82,-1.399 -5.239,-3.256 -7.256,-5.571c-2.018,-2.316 -3.576,-4.964 -4.677,-7.944c-1.1,-2.98 -1.651,-6.029 -1.651,-9.147c0,-3.256 0.585,-6.374 1.754,-9.354c1.169,-2.98 2.786,-5.617 4.849,-7.909c2.063,-2.293 4.494,-4.116 7.29,-5.468c2.797,-1.353 5.824,-2.029 9.079,-2.029c3.393,-0 6.5,0.722 9.319,2.166c2.82,1.445 5.228,3.336 7.222,5.674c1.995,2.339 3.542,4.987 4.643,7.944c1.1,2.958 1.65,5.972 1.65,9.044c0,3.256 -0.584,6.374 -1.754,9.354c-1.169,2.981 -2.774,5.606 -4.814,7.875c-2.04,2.27 -4.459,4.081 -7.256,5.434c-2.797,1.352 -5.823,2.029 -9.079,2.029Zm-18.088,-24.76c-0,2.659 0.435,5.215 1.307,7.668c0.871,2.453 2.109,4.631 3.714,6.534c1.604,1.903 3.507,3.416 5.708,4.54c2.201,1.123 4.654,1.685 7.359,1.685c2.751,-0 5.25,-0.596 7.497,-1.789c2.247,-1.192 4.15,-2.751 5.709,-4.676c1.559,-1.926 2.762,-4.104 3.61,-6.534c0.849,-2.43 1.273,-4.906 1.273,-7.428c-0,-2.66 -0.447,-5.216 -1.341,-7.669c-0.894,-2.453 -2.144,-4.62 -3.749,-6.499c-1.605,-1.88 -3.507,-3.382 -5.708,-4.505c-2.201,-1.124 -4.631,-1.685 -7.291,-1.685c-2.751,-0 -5.25,0.584 -7.496,1.753c-2.247,1.17 -4.15,2.717 -5.709,4.643c-1.559,1.926 -2.763,4.104 -3.611,6.534c-0.848,2.43 -1.272,4.906 -1.272,7.428Z" style="fill:#67211b;fill-rule:nonzero;"/><path d="M639.782,292.113l0,-48.832l20.221,-0c2.109,-0 4.046,0.447 5.812,1.341c1.765,0.894 3.29,2.063 4.573,3.508c1.284,1.444 2.282,3.083 2.992,4.917c0.711,1.834 1.066,3.691 1.066,5.571c0,2.018 -0.332,3.955 -0.997,5.812c-0.665,1.857 -1.616,3.496 -2.854,4.917c-1.238,1.422 -2.717,2.568 -4.436,3.439c-1.72,0.871 -3.634,1.307 -5.743,1.307l-15.888,0l0,18.02l-4.746,-0Zm4.746,-22.284l15.613,-0c1.421,-0 2.716,-0.31 3.886,-0.929c1.169,-0.619 2.166,-1.444 2.991,-2.476c0.826,-1.031 1.468,-2.223 1.926,-3.576c0.459,-1.353 0.688,-2.763 0.688,-4.23c-0,-1.513 -0.264,-2.946 -0.791,-4.298c-0.527,-1.353 -1.238,-2.534 -2.132,-3.543c-0.894,-1.008 -1.949,-1.799 -3.164,-2.372c-1.215,-0.574 -2.487,-0.86 -3.817,-0.86l-15.2,-0l0,22.284Z" style="fill:#67211b;fill-rule:nonzero;"/><path d="M729.675,292.113l-0,-40.098l-17.814,31.019l-2.82,0l-17.882,-31.019l0,40.098l-4.745,-0l-0,-48.832l4.883,-0l19.12,33.426l19.12,-33.426l4.883,-0l0,48.832l-4.745,-0Z" style="fill:#67211b;fill-rule:nonzero;"/><path d="M783.527,287.849l0,4.264l-32.806,-0l-0,-48.832l32.187,-0l0,4.264l-27.442,-0l0,17.607l23.935,-0l-0,4.058l-23.935,-0l0,18.639l28.061,-0Z" style="fill:#67211b;fill-rule:nonzero;"/><path d="M801.547,252.222l0,39.891l-4.746,-0l0,-48.832l3.714,-0l32.326,40.647l-0,-40.579l4.745,0l0,48.764l-4.126,-0l-31.913,-39.891Z" style="fill:#67211b;fill-rule:nonzero;"/><path d="M888.619,247.545l-17.4,-0l-0,44.568l-4.815,-0l0,-44.568l-17.4,-0l-0,-4.264l39.615,-0l0,4.264Z" style="fill:#67211b;fill-rule:nonzero;"/></g></g></g></g></svg>