<?xml version="1.0" standalone="no"?>
<!DOCTYPE svg PUBLIC "-//W3C//DTD SVG 20010904//EN"
 "http://www.w3.org/TR/2001/REC-SVG-20010904/DTD/svg10.dtd">
<svg version="1.0" xmlns="http://www.w3.org/2000/svg"
 width="500.000000pt" height="500.000000pt" viewBox="0 0 500.000000 500.000000"
 preserveAspectRatio="xMidYMid meet">
<metadata>
Created by potrace 1.14, written by Peter Selinger 2001-2017
</metadata>
<g transform="translate(0.000000,500.000000) scale(0.100000,-0.100000)"
fill="#000000" stroke="none">
<path d="M2216 3714 l-376 -334 0 -363 c0 -200 -2 -366 -6 -369 -3 -3 -108 39
-235 93 l-230 99 -314 -278 -314 -277 0 -667 -1 -668 40 0 40 0 0 653 0 652
40 33 40 33 0 -685 0 -686 25 0 25 0 0 709 0 709 53 47 52 48 3 -677 2 -677
23 3 22 3 3 697 2 698 47 42 c25 24 52 49 60 56 11 11 13 -123 13 -822 l0
-836 25 0 25 0 0 858 0 858 45 37 45 38 0 -896 0 -895 285 0 285 0 0 789 c0
784 0 789 20 784 20 -5 20 -14 20 -789 l0 -784 70 0 70 0 0 785 c0 689 -2 786
-15 791 -13 5 -15 68 -14 483 l0 476 65 59 64 58 0 -816 0 -816 30 0 30 0 0
843 1 842 72 64 72 63 3 -1416 2 -1416 30 0 30 0 0 1443 0 1443 50 49 50 49 0
-1492 0 -1492 270 0 270 0 0 328 0 328 33 32 c18 18 36 32 40 32 4 0 7 -162 7
-360 0 -353 0 -360 20 -360 20 0 20 7 20 384 l0 384 42 36 c23 20 45 36 50 36
4 0 8 -189 8 -420 0 -413 0 -420 20 -420 20 0 20 7 20 445 l0 445 46 42 c25
24 50 45 55 46 5 2 9 -204 9 -487 0 -430 2 -491 15 -491 13 0 15 63 15 508 l0
509 40 37 40 37 0 -546 0 -545 25 0 c18 0 25 5 25 20 0 24 -2 24 55 0 43 -19
66 -20 248 -18 l201 3 -250 107 -249 106 -3 36 c-2 22 1 36 8 36 6 0 138 -54
293 -120 156 -66 286 -120 290 -120 4 0 6 39 5 87 l-3 86 -295 126 -295 126
-3 38 c-2 20 1 37 5 37 5 0 130 -52 278 -116 149 -64 280 -120 293 -125 22 -8
22 -8 22 80 l0 88 -300 128 -300 128 0 40 c0 27 4 38 13 34 6 -3 140 -60 296
-126 156 -67 285 -121 287 -121 2 0 4 39 4 88 l0 87 -298 126 -297 126 -3 36
c-2 23 1 37 8 37 6 0 138 -54 292 -120 154 -66 284 -120 289 -120 5 0 9 17 9
38 l0 37 -324 139 -325 139 -53 -47 -53 -46 -3 117 -3 118 -409 174 -410 174
0 38 c0 22 2 39 4 39 2 0 187 -78 410 -174 l407 -174 -3 50 -3 51 -405 172
-405 173 -3 41 -3 40 38 -15 c21 -9 191 -82 378 -162 187 -79 355 -151 373
-159 l32 -13 0 49 0 49 -407 174 -408 173 -3 38 c-2 20 1 37 6 37 5 0 188 -76
407 -170 218 -93 399 -170 401 -170 2 0 4 21 4 48 l0 47 -410 175 -410 174 0
38 c0 21 2 38 5 38 2 0 179 -75 392 -166 214 -91 396 -169 406 -171 16 -5 18
0 15 43 l-3 48 -407 174 -408 174 0 40 c0 28 4 39 13 35 6 -3 176 -76 377
-162 201 -86 380 -163 398 -170 l33 -14 -3 50 -3 51 -405 172 -405 173 -3 42
c-2 24 0 41 5 38 6 -4 728 -314 801 -344 9 -4 12 9 12 44 l0 49 -410 175 -410
174 0 38 c0 20 3 37 6 37 3 0 186 -76 405 -170 219 -93 401 -170 404 -170 3 0
5 21 5 48 l-1 47 -409 174 -410 174 0 38 c0 22 1 39 3 39 2 0 187 -78 411
-174 l407 -174 -3 40 -3 41 -436 187 c-240 103 -443 189 -452 193 -10 4 -135
-102 -391 -329z m-189 -1151 c-2 -2 -25 6 -50 17 l-47 21 0 367 0 366 48 49
47 48 3 -432 c1 -238 1 -434 -1 -436z m-497 -348 c0 -433 -2 -495 -15 -495
-13 0 -15 62 -15 495 0 433 2 495 15 495 13 0 15 -62 15 -495z m185 413 l25
-11 -2 -696 -3 -696 -32 -3 -33 -3 0 710 c0 444 4 711 10 711 5 0 21 -5 35
-12z"/>
</g>
</svg>
