<svg width="200" height="150" viewBox="0 0 800 600" fill="none" xmlns="http://www.w3.org/2000/svg" data-reactroot="">
<path opacity="0.2" d="M660.382 354.983H605.559C582.219 350.749 564.524 330.448 564.524 305.914C564.524 292.127 570.06 279.642 579.179 270.632C587.538 262.273 598.829 256.953 611.313 256.085C610.227 255.976 609.25 255.976 608.165 255.976H626.946C654.52 255.976 676.883 233.613 676.883 206.039C676.883 178.465 654.52 156.102 626.946 156.102H345.993C318.419 156.102 296.056 178.465 296.056 206.039C296.056 233.613 318.419 255.976 345.993 255.976H384.315C411.889 255.976 434.252 278.34 434.252 305.914C434.252 319.701 428.716 332.185 419.597 341.196C412.54 348.252 403.421 353.137 393.325 354.983H124.966C97.3917 354.983 75.0284 377.346 75.0284 404.92C75.0284 432.494 97.3917 454.858 124.966 454.858H660.382C687.956 454.858 710.319 432.494 710.319 404.92C710.211 377.346 687.956 354.983 660.382 354.983Z" fill="#f5a623"></path>
<path d="M314.728 394.118C314.619 394.118 314.511 394.118 314.402 394.118L302.786 392.924L302.895 391.729L314.511 392.924C315.379 393.032 316.139 392.381 316.573 391.404C318.093 387.17 318.093 382.285 317.007 377.725C313.859 377.617 310.711 375.88 308.431 372.84C306.911 370.886 307.454 368.172 309.083 366.869C310.385 365.784 311.905 366.001 313.099 367.304C315.379 369.8 317.007 373.057 317.985 376.423C318.527 376.423 319.07 376.314 319.504 376.097C319.83 375.988 320.264 375.771 320.59 375.228C320.699 375.12 327.212 363.504 322.218 354.928C319.179 349.717 313.316 347.763 309.734 346.46C307.454 345.7 306.152 345.266 306.369 344.18C306.586 342.986 308.648 342.986 314.293 343.095C322.87 343.312 337.091 343.638 343.062 336.69C343.17 336.473 343.387 336.364 343.387 336.255C348.164 329.308 349.575 321.817 347.621 314.978C321.241 316.28 283.245 319.537 267.83 328.113C266.093 329.091 261.642 331.587 261.859 333.867C262.293 337.992 277.275 340.598 287.262 341.249C304.089 342.443 321.567 338.644 339.154 330.068L339.696 331.153C321.784 339.838 304.089 343.638 287.154 342.443C284.548 342.226 261.316 340.489 260.556 333.976C260.231 330.827 264.899 328.222 267.07 327.028C273.909 323.228 284.982 320.514 297.467 318.452C296.707 318.126 296.164 317.475 295.73 316.606C295.078 314.869 295.404 312.915 296.707 311.83C297.141 311.395 297.575 311.07 298.01 310.635C292.799 309.55 287.262 306.619 286.177 299.779C285.308 293.917 288.239 289.032 292.799 285.667C275.646 283.495 271.847 275.136 271.087 271.88C270.653 270.36 270.978 268.406 271.955 266.235C281.4 244.631 337.308 242.677 364.448 253.859C367.596 255.161 378.018 259.938 379.755 267.32C380.623 270.903 379.972 274.702 377.801 278.719C377.692 279.045 377.475 279.262 377.258 279.587C376.172 280.89 374.978 282.084 373.893 283.278C375.413 284.473 376.824 285.992 377.909 287.838C380.515 292.072 380.841 297.065 378.995 302.711C378.886 303.036 378.778 303.362 378.561 303.688C372.807 312.807 364.448 313.675 356.957 314.435C354.461 314.544 351.747 314.652 348.924 314.761C350.878 321.817 349.358 329.633 344.365 336.798C344.256 336.907 344.147 337.124 343.93 337.341C337.634 344.723 322.978 344.397 314.185 344.18C311.58 344.072 308.648 344.072 307.671 344.289C308.106 344.506 309.083 344.832 309.951 345.157C313.642 346.46 319.83 348.523 323.087 354.059C328.515 363.504 321.567 375.445 321.458 375.554C321.024 376.205 320.373 376.64 319.721 376.965C319.179 377.074 318.636 377.291 318.093 377.291C319.287 382.068 319.179 387.061 317.55 391.512C317.225 393.249 316.03 394.118 314.728 394.118ZM310.82 367.412C310.385 367.412 310.06 367.629 309.734 367.846C308.757 368.606 308.106 370.56 309.3 372.08C311.362 374.686 313.968 376.205 316.573 376.423C315.596 373.274 314.076 370.343 312.014 368.063C311.688 367.629 311.254 367.412 310.82 367.412ZM299.746 311.07C299.095 311.612 298.444 312.264 297.792 312.807C296.815 313.784 296.707 315.303 297.141 316.28C297.467 317.149 298.227 317.692 298.987 317.692C309.951 317.258 320.916 314.869 331.446 310.853L306.043 311.504C304.415 311.504 302.135 311.504 299.746 311.07ZM334.811 310.744C329.818 312.807 324.715 314.544 319.613 315.846C329.275 314.869 338.937 314.326 347.404 313.892C346.97 312.698 346.536 311.612 345.884 310.418L334.811 310.744ZM347.187 310.527C347.73 311.612 348.273 312.807 348.598 313.892C351.529 313.784 354.352 313.675 356.957 313.567C364.448 312.807 372.264 311.938 377.584 303.362C377.692 303.145 377.801 302.928 377.909 302.711C379.646 297.391 379.321 292.723 376.932 288.815C375.847 287.078 374.544 285.667 373.133 284.581C371.396 286.318 369.659 287.946 367.922 289.575C370.419 291.529 372.699 293.917 374.761 296.957C375.195 297.5 375.413 298.151 375.521 298.802C375.955 302.493 375.413 305.207 373.784 307.161C371.613 309.767 367.922 310.093 364.991 310.201L347.187 310.527ZM300.832 310.093C302.352 310.31 304.089 310.31 306.043 310.31L334.594 309.658C337.308 308.573 339.914 307.27 342.519 305.967C337.634 300.648 330.469 297.608 323.955 298.26C315.162 299.128 307.454 304.339 300.832 310.093ZM294.861 286.101C290.302 289.032 286.611 293.592 287.588 299.888C288.131 303.253 290.41 308.356 299.312 309.984C306.26 303.905 314.402 298.042 323.847 297.065C330.903 296.306 338.502 299.671 343.713 305.425C351.638 301.191 359.237 295.871 366.185 289.683C353.158 280.13 335.68 282.736 320.047 285.015L319.179 285.124C309.083 286.427 301.158 286.644 294.861 286.101ZM343.279 306.836C341.433 307.813 339.588 308.681 337.742 309.55L345.124 309.333C344.582 308.464 344.039 307.596 343.279 306.836ZM344.365 306.184C345.124 307.161 345.776 308.139 346.427 309.116C346.427 309.116 346.427 309.224 346.536 309.224L364.991 308.79C367.705 308.681 371.07 308.356 372.916 306.184C374.327 304.556 374.761 302.059 374.327 298.802C374.218 298.368 374.11 297.825 373.784 297.5C371.722 294.569 369.442 292.18 366.945 290.335C360.106 296.523 352.398 301.842 344.365 306.184ZM341.868 281.541C350.878 281.541 359.671 283.17 367.053 288.706C368.79 287.078 370.527 285.45 372.264 283.713C367.379 280.239 361.408 279.045 359.129 278.719C340.348 276.005 321.458 277.199 303.003 282.41C301.158 282.953 299.095 283.713 297.033 284.798C306.477 285.45 315.705 284.255 318.962 283.713L319.83 283.604C326.995 282.627 334.486 281.541 341.868 281.541ZM324.39 248.648C320.156 248.648 315.922 248.865 311.797 249.299C291.387 251.253 277.383 257.767 273.258 267.103C272.389 269.057 272.172 270.577 272.498 271.988C274.669 280.673 284.548 283.93 294.753 284.798C297.141 283.278 299.855 282.193 302.569 281.433C321.241 276.222 340.239 275.028 359.237 277.742C361.517 278.068 367.922 279.262 373.024 282.953C374.218 281.759 375.413 280.456 376.498 279.153C376.607 278.936 376.824 278.827 376.932 278.61C378.886 274.811 379.538 271.228 378.778 267.971C377.15 261.132 367.271 256.573 364.231 255.379C353.809 251.036 339.154 248.648 324.39 248.648Z" fill="#8c1e19"></path>
<path opacity="0.69" d="M470.836 203.164H469.75V357.97H470.836V203.164Z" fill="#8c1e19"></path>
<path opacity="0.69" d="M503.404 203.164H502.318V357.97H503.404V203.164Z" fill="#8c1e19"></path>
<path opacity="0.69" d="M535.972 203.164H534.886V357.97H535.972V203.164Z" fill="#8c1e19"></path>
<path opacity="0.69" d="M568.54 203.164H567.454V357.97H568.54V203.164Z" fill="#8c1e19"></path>
<path opacity="0.69" d="M596.982 230.738H442.176V231.824H596.982V230.738Z" fill="#8c1e19"></path>
<path opacity="0.69" d="M596.982 263.305H442.176V264.39H596.982V263.305Z" fill="#8c1e19"></path>
<path opacity="0.69" d="M596.982 295.871H442.176V296.957H596.982V295.871Z" fill="#8c1e19"></path>
<path opacity="0.69" d="M596.982 328.441H442.176V329.527H596.982V328.441Z" fill="#8c1e19"></path>
<path d="M531.087 395.855H398.101V549.467H531.087V395.855Z" fill="#f5a623"></path>
<path d="M424.59 412.031H407.221V447.639H424.59V412.031Z" fill="#8c1e19"></path>
<path d="M459.112 412.031H428.39V447.639H459.112V412.031Z" fill="#8c1e19"></path>
<path d="M424.59 455.996H407.221V491.604H424.59V455.996Z" fill="#8c1e19"></path>
<path d="M480.499 412.031H463.129V447.639H480.499V412.031Z" fill="#8c1e19"></path>
<path d="M480.499 455.996H463.129V491.604H480.499V455.996Z" fill="#8c1e19"></path>
<path d="M459.112 455.996H428.39V491.604H459.112V455.996Z" fill="#8c1e19"></path>
<path d="M464.213 502.676H423.286V550.116H464.213V502.676Z" fill="#8c1e19"></path>
<path d="M531.087 395.855H489.183V549.467H531.087V395.855Z" fill="#8c1e19"></path>
<path d="M758.085 547.84L753.309 556.199H14.7774L10.0008 547.84H183.588H359.888H407.763H620.214H758.085Z" fill="#8c1e19"></path>
<path d="M138.21 468.373C138.21 468.373 132.565 496.815 141.792 520.373C151.02 543.93 161.442 546.536 161.442 546.536C161.442 546.536 142.769 547.838 119.972 547.838C119.972 547.838 113.458 464.356 124.423 460.122C135.387 455.889 138.21 468.373 138.21 468.373Z" fill="#B5CDFB"></path>
<path d="M182.393 445.142C183.587 447.53 184.13 450.136 184.13 452.741C184.13 467.396 165.24 479.338 141.9 479.338C130.827 479.338 120.839 476.624 113.24 472.282C112.806 472.065 112.372 471.739 111.938 471.522C110.201 471.739 108.355 471.847 106.51 471.847C88.3801 471.847 73.616 459.906 73.616 445.25C73.616 441.451 74.593 437.868 76.33 434.611C75.0273 432.223 73.9417 429.618 73.3989 426.795C70.2507 412.574 77.8498 398.135 90.3342 394.553C93.3738 393.685 96.305 393.576 99.2361 394.01C102.059 387.931 106.292 383.48 111.612 381.96C117.691 380.223 123.988 382.503 129.416 387.497C131.587 389.451 133.541 391.948 135.386 394.77C137.449 393.142 139.837 391.948 142.443 391.296C153.624 388.148 165.023 394.77 169.474 406.495C180.33 410.837 187.929 419.847 187.929 430.378C188.038 435.806 185.975 440.908 182.393 445.142Z" fill="#8c1e19"></path>
<path d="M324.282 453.066H317.986V548.273H324.282V453.066Z" fill="#8c1e19"></path>
<path d="M290.736 458.388C290.085 458.388 289.434 458.062 288.999 457.411C288.674 456.759 288.674 456.108 288.999 455.457L319.396 402.805C319.722 402.154 320.373 401.828 321.133 401.828C321.784 401.828 322.436 402.154 322.87 402.805L353.267 455.457C353.592 456.108 353.592 456.759 353.267 457.411C352.941 458.062 352.29 458.388 351.53 458.388H290.736Z" fill="#8c1e19"></path>
<path d="M354.896 454.477L324.499 401.825C323.739 400.631 322.545 399.871 321.134 399.871C319.722 399.871 318.42 400.631 317.768 401.825L287.371 454.477C286.72 455.671 286.72 457.191 287.371 458.385C288.023 459.579 289.326 460.339 290.737 460.339H351.53C352.941 460.339 354.244 459.579 354.896 458.385C355.547 457.191 355.547 455.671 354.896 454.477ZM290.737 456.431L305.935 430.159L321.134 403.779L336.332 430.159L351.53 456.431H290.737Z" fill="#f5a623"></path>
<path d="M314.325 428.291L311.792 430.824L327.989 447.021L330.522 444.488L314.325 428.291Z" fill="#f5a623"></path>
<path d="M330.535 430.924L328.002 428.391L311.805 444.588L314.338 447.121L330.535 430.924Z" fill="#f5a623"></path>
<path opacity="0.32" d="M324.28 535.138V548.166H317.984V531.773C318.961 533.619 319.503 535.464 319.503 537.201C320.263 535.03 320.806 532.859 321.132 530.688C322.435 532.099 323.52 533.619 324.28 535.138Z" fill="black"></path>
<path opacity="0.55" d="M381.275 175.806C379.647 175.806 378.235 174.394 378.235 172.766C378.235 165.492 372.373 159.63 365.1 159.63C357.826 159.63 351.964 165.492 351.964 172.766C351.964 174.394 350.553 175.806 348.924 175.806C347.296 175.806 345.885 174.394 345.885 172.766C345.885 162.127 354.569 153.551 365.1 153.551C375.63 153.551 384.315 162.236 384.315 172.766C384.315 174.394 383.012 175.806 381.275 175.806Z" fill="#B5CDFB"></path>
<path opacity="0.55" d="M413.733 175.806C412.104 175.806 410.693 174.394 410.693 172.766C410.693 165.492 404.831 159.63 397.557 159.63C390.284 159.63 384.422 165.492 384.422 172.766C384.422 174.394 383.01 175.806 381.382 175.806C379.754 175.806 378.342 174.394 378.342 172.766C378.342 162.127 387.027 153.551 397.557 153.551C408.196 153.551 416.772 162.236 416.772 172.766C416.772 174.394 415.361 175.806 413.733 175.806Z" fill="#B5CDFB"></path>
<path opacity="0.8" d="M156.447 264.497C155.904 264.497 155.361 264.497 154.818 264.497C150.693 255.378 139.186 248.755 125.616 248.755C118.342 248.755 111.72 250.601 106.401 253.749C106.075 253.532 105.641 253.315 105.315 252.989C99.9959 244.304 90.5512 238.551 79.5867 238.551C62.977 238.551 49.5156 252.012 49.5156 268.622C38.6597 268.622 29.7578 277.415 29.7578 288.38C29.7578 299.236 38.5511 308.138 49.5156 308.138C51.144 308.138 52.7724 307.92 54.2923 307.486C55.7035 307.703 57.1148 307.92 58.5261 307.92H175.011C176.313 307.92 177.399 307.812 178.267 307.595H178.376C178.484 307.595 178.593 307.486 178.702 307.486C185.867 305.749 191.186 299.344 191.186 291.745C191.295 273.29 174.142 264.497 156.447 264.497Z" fill="#B5CDFB"></path>
<path d="M168.498 540.349C168.498 541.76 168.281 543.063 167.738 544.257C166.87 546.645 165.241 548.599 163.07 550.119H116.064C111.722 549.033 108.248 546.102 106.728 542.303C106.294 541.109 105.968 539.697 105.968 538.395C105.968 533.184 109.55 528.733 114.653 526.996C115.304 520.808 121.058 516.031 128.006 516.031C128.44 516.031 128.874 516.031 129.308 516.14C131.805 513.209 135.605 511.363 139.947 511.363C144.289 511.363 148.089 513.209 150.586 516.031C157.859 516.248 163.613 521.568 163.613 528.19C163.613 529.059 163.505 530.036 163.287 530.904C166.544 533.075 168.498 536.549 168.498 540.349Z" fill="#8c1e19"></path>
<path d="M688.823 211.195H636.063V263.955H688.823V211.195Z" fill="#f5a623"></path>
<path d="M665.268 178.52H659.514V216.624H665.268V178.52Z" fill="#8c1e19"></path>
<path d="M688.824 255.816H518.711V547.842H688.824V255.816Z" fill="#f5a623"></path>
<path d="M659.512 211.195V255.813H636.063V550.118H688.823V263.955V255.813V211.195H659.512Z" fill="#8c1e19"></path>
<path d="M562.136 277.852H535.213V333.108H562.136V277.852Z" fill="#8c1e19"></path>
<path d="M615.655 277.852H568.105V333.108H615.655V277.852Z" fill="#8c1e19"></path>
<path d="M562.136 345.918H535.213V401.175H562.136V345.918Z" fill="#8c1e19"></path>
<path d="M615.655 345.918H568.105V401.175H615.655V345.918Z" fill="#8c1e19"></path>
<path d="M562.136 414.094H535.213V469.351H562.136V414.094Z" fill="#8c1e19"></path>
<path d="M615.655 414.094H568.105V469.351H615.655V414.094Z" fill="#8c1e19"></path>
<path d="M562.568 333.542H534.56V277.199H562.568V333.542ZM535.754 332.456H561.483V278.285H535.646V332.456H535.754Z" fill="#B5CDFB"></path>
<path d="M616.197 333.542H567.563V277.199H616.197V333.542ZM568.648 332.456H615.112V278.285H568.648V332.456Z" fill="#B5CDFB"></path>
<path d="M562.568 401.717H534.56V345.375H562.568V401.717ZM535.754 400.632H561.483V346.461H535.646V400.632H535.754Z" fill="#B5CDFB"></path>
<path d="M616.197 401.717H567.563V345.375H616.197V401.717ZM568.648 400.632H615.112V346.461H568.648V400.632Z" fill="#B5CDFB"></path>
<path d="M562.568 469.784H534.56V413.441H562.568V469.784ZM535.754 468.698H561.483V414.527H535.646V468.698H535.754Z" fill="#B5CDFB"></path>
<path d="M616.197 469.784H567.563V413.441H616.197V469.784ZM568.648 468.698H615.112V414.527H568.648V468.698Z" fill="#B5CDFB"></path>
<path d="M539.989 155.613C537.058 155.613 534.887 153.225 534.887 150.511C534.887 149.208 535.321 148.014 536.189 146.928L581.676 92.6486C582.761 91.4544 584.173 90.5859 586.127 90.5859C589.166 90.5859 591.663 92.9743 591.663 96.1225V145.3H601.216C604.039 145.3 606.319 147.58 606.319 150.511C606.319 153.333 604.039 155.613 601.216 155.613H591.663V180.908C591.663 183.947 589.275 186.553 586.127 186.553C583.087 186.553 580.482 184.056 580.482 180.908V155.613H539.989ZM580.482 108.715L549.759 145.191H580.482V108.715Z" fill="#8c1e19"></path>
<path d="M614.678 138.571C614.678 111.648 635.738 90.2617 662.444 90.2617C689.15 90.2617 710.21 111.539 710.21 138.571C710.21 165.494 689.15 186.88 662.444 186.88C635.738 186.88 614.678 165.494 614.678 138.571ZM698.812 138.571C698.812 117.51 682.853 100.901 662.444 100.901C642.143 100.901 626.077 117.51 626.077 138.571C626.077 159.631 642.143 176.241 662.444 176.241C682.853 176.241 698.812 159.631 698.812 138.571Z" fill="#8c1e19"></path>
<path d="M723.671 155.613C720.74 155.613 718.569 153.225 718.569 150.511C718.569 149.208 719.003 148.014 719.871 146.928L765.358 92.6486C766.443 91.4544 767.855 90.5859 769.809 90.5859C772.848 90.5859 775.345 92.9743 775.345 96.1225V145.3H784.898C787.721 145.3 790.001 147.58 790.001 150.511C790.001 153.333 787.721 155.613 784.898 155.613H775.345V180.908C775.345 183.947 772.957 186.553 769.809 186.553C766.769 186.553 764.164 184.056 764.164 180.908V155.613H723.671ZM764.164 108.715L733.441 145.191H764.164V108.715Z" fill="#8c1e19"></path>
<path d="M668.414 94.4922C668.414 94.4922 655.604 112.405 665.7 116.421C675.905 120.438 678.51 123.912 676.448 128.471C674.385 133.031 667.654 137.807 673.517 139.762C679.379 141.716 679.922 119.461 685.784 123.695C691.646 127.929 704.348 135.962 703.696 124.455C703.045 112.947 677.533 96.9891 677.533 96.9891L668.414 94.4922Z" fill="#8c1e19"></path>
<path d="M621.734 143.021C621.734 143.021 629.985 129.668 639.429 130.97C648.874 132.273 658.21 117.618 660.273 120.549C662.444 123.48 661.901 130.97 663.53 135.856C665.158 140.632 671.78 144.106 670.26 147.689C668.632 151.163 643.446 161.91 646.16 164.841C648.874 167.772 662.444 166.687 662.444 171.572C662.444 176.457 646.16 184.165 646.16 184.165L626.077 160.607L621.734 143.021Z" fill="#8c1e19"></path>
<path d="M686.002 149.426C686.002 149.426 677.426 156.916 677.426 159.63C677.426 162.344 679.38 159.63 682.746 158.002C686.111 156.374 692.407 151.597 689.259 150.511C686.002 149.426 686.002 149.426 686.002 149.426Z" fill="#8c1e19"></path>
<path d="M647.462 108.715C646.16 108.715 643.446 110.235 643.229 112.189C643.012 114.034 647.788 113.926 646.16 117.182C644.531 120.439 642.686 123.37 647.462 122.393C652.239 121.308 653.65 118.377 652.782 115.663C652.022 113.057 650.394 108.823 647.462 108.715Z" fill="#8c1e19"></path>
<path opacity="0.69" d="M729.752 282.517C729.426 282.517 729.101 282.517 728.775 282.517C726.387 277.197 719.656 273.289 711.622 273.289C707.389 273.289 703.481 274.375 700.441 276.22C697.835 274.375 694.687 273.289 691.322 273.289C683.397 273.289 676.883 279.043 675.689 286.533C673.735 285.014 671.238 284.145 668.633 284.145C662.119 284.145 656.8 289.464 656.8 295.978C656.8 302.492 662.119 307.811 668.633 307.811C669.284 307.811 669.827 307.702 670.478 307.702C671.13 307.811 671.781 307.811 672.541 307.811H743.322C750.378 307.811 756.132 302.057 756.132 295.001C756.023 288.162 744.299 282.517 729.752 282.517Z" fill="#B5CDFB"></path>
<path opacity="0.69" d="M424.048 60.1877C423.831 60.1877 423.614 60.1877 423.397 60.1877C421.66 56.2796 416.775 53.457 411.021 53.457C407.981 53.457 405.159 54.2169 402.879 55.6282C401.033 54.3255 398.754 53.457 396.257 53.457C390.503 53.457 385.835 57.5823 384.967 63.1188C383.555 62.0332 381.818 61.3819 379.864 61.3819C375.088 61.3819 371.288 65.1815 371.288 69.9581C371.288 74.7347 375.088 78.5343 379.864 78.5343C380.299 78.5343 380.733 78.5343 381.167 78.4257C381.601 78.5343 382.144 78.5343 382.687 78.5343H434.036C439.138 78.5343 443.372 74.409 443.372 69.1982C443.263 64.313 434.687 60.1877 424.048 60.1877Z" fill="#B5CDFB"></path>
<path d="M66.7783 448.725C66.7783 448.725 73.509 484.224 62.5445 513.535C51.58 542.846 38.01 547.514 38.01 547.514C38.01 547.514 61.3503 547.84 88.2731 547.84C88.2731 547.84 95.9809 443.84 82.9537 438.52C69.9266 433.201 66.7783 448.725 66.7783 448.725Z" fill="#B5CDFB"></path>
<path opacity="0.32" d="M113.24 472.282C112.806 472.065 112.372 471.739 111.938 471.522C110.201 471.739 108.355 471.847 106.51 471.847C88.3801 471.847 73.616 459.906 73.616 445.25C73.616 441.451 74.593 437.868 76.33 434.611C75.0273 432.223 73.9417 429.618 73.3989 426.795C70.2507 412.574 77.8498 398.135 90.3342 394.553C93.3738 393.685 96.305 393.576 99.2361 394.01C102.059 387.931 106.292 383.48 111.612 381.96C117.691 380.223 123.988 382.503 129.416 387.497C129.958 390.428 130.284 393.467 130.284 396.507C130.284 403.346 128.764 409.86 126.159 415.722C131.261 419.847 134.844 425.058 136.363 431.138C140.272 446.227 130.393 462.403 113.24 472.282Z" fill="black"></path>
<path d="M18.359 540.349C18.359 541.76 18.5762 543.063 19.119 544.257C19.9874 546.645 21.6158 548.599 23.787 550.119H70.7933C75.1357 549.033 78.6096 546.102 80.1295 542.303C80.5637 541.109 80.8894 539.697 80.8894 538.395C80.8894 533.184 77.3069 528.733 72.2046 526.996C71.5532 520.808 65.7996 516.031 58.8518 516.031C58.4175 516.031 57.9833 516.031 57.5491 516.14C55.0522 513.209 51.2526 511.363 46.9102 511.363C42.5678 511.363 38.7682 513.209 36.2714 516.031C28.9979 516.248 23.2442 521.568 23.2442 528.19C23.2442 529.059 23.3528 530.036 23.5699 530.904C20.3131 533.075 18.359 536.549 18.359 540.349Z" fill="#8c1e19"></path>
<path d="M89.0314 43.7969C82.1921 43.7969 76.2213 47.3793 72.856 52.6988C69.3821 47.3793 63.4113 43.7969 56.572 43.7969C45.9332 43.7969 37.357 52.4816 37.357 63.0119C37.357 64.6403 38.7682 66.0516 40.3966 66.0516C42.025 66.0516 43.4363 64.6403 43.4363 63.0119C43.4363 55.7384 49.2985 49.8762 56.572 49.8762C63.8455 49.8762 69.7077 55.7384 69.7077 63.0119C69.7077 64.6403 71.119 66.0516 72.7474 66.0516C74.3758 66.0516 75.7871 64.6403 75.7871 63.0119C75.7871 55.7384 81.6493 49.8762 88.9228 49.8762C96.1963 49.8762 102.059 55.7384 102.059 63.0119C102.059 64.6403 103.47 66.0516 105.098 66.0516C106.727 66.0516 108.138 64.6403 108.138 63.0119C108.246 52.4816 99.6702 43.7969 89.0314 43.7969Z" fill="#B5CDFB"></path>
<path d="M124.097 423.539C122.577 417.46 118.995 412.249 113.892 408.124C116.498 402.262 118.017 395.748 118.017 388.909C118.017 374.579 111.612 361.66 101.516 353.084C99.0196 334.412 87.9465 325.293 72.8567 325.293C57.7669 325.293 43.6542 334.303 40.3974 352.867C30.1928 361.552 23.6792 374.47 23.6792 388.909C23.6792 399.765 27.3702 409.861 33.5581 417.786C24.8733 426.905 20.7481 438.086 23.3535 448.617C28.2387 468.375 54.8358 478.688 82.6271 471.74C110.527 465.009 129.091 443.297 124.097 423.539Z" fill="#f5a623"></path>
<path d="M323.52 548.166C318.418 546.429 318.526 541.001 318.526 541.001H318.418C318.852 537.635 317.115 533.836 314.075 530.796C313.75 532.967 313.207 535.138 312.447 537.31C312.447 534.161 310.819 530.796 308.105 528.082C307.67 530.796 307.019 533.619 305.825 536.333C305.065 534.378 303.871 532.424 302.134 530.796C301.374 536.115 299.528 541.652 295.186 545.886C292.906 548.057 290.952 549.034 291.278 549.468C291.495 550.011 294.209 550.011 297.249 549.251C308.973 551.531 323.52 548.166 323.52 548.166Z" fill="#8c1e19"></path>
<path opacity="0.32" d="M324.28 460.34H317.984V464.031H324.28V460.34Z" fill="black"></path>
<path d="M425.133 448.291H406.678V411.598H425.133V448.291ZM407.764 447.205H424.048V412.683H407.764V447.205Z" fill="#B5CDFB"></path>
<path d="M459.655 448.291H427.847V411.598H459.655V448.291ZM428.933 447.205H458.57V412.683H428.933V447.205Z" fill="#B5CDFB"></path>
<path d="M425.133 492.256H406.678V455.562H425.133V492.256ZM407.764 491.17H424.048V456.648H407.764V491.17Z" fill="#B5CDFB"></path>
<path d="M481.041 448.291H462.586V411.598H481.041V448.291ZM463.672 447.205H479.956V412.683H463.672V447.205Z" fill="#B5CDFB"></path>
<path d="M481.041 492.256H462.586V455.562H481.041V492.256ZM463.672 491.17H479.956V456.648H463.672V491.17Z" fill="#B5CDFB"></path>
<path d="M459.655 492.256H427.847V455.562H459.655V492.256ZM428.933 491.17H458.57V456.648H428.933V491.17Z" fill="#B5CDFB"></path>
<path d="M636.063 543.062C634.543 543.062 633.349 541.868 633.349 540.348V358.511C633.349 356.991 634.543 355.797 636.063 355.797C637.583 355.797 638.777 356.991 638.777 358.511V540.348C638.777 541.868 637.583 543.062 636.063 543.062Z" fill="#B5CDFB"></path>
<path d="M636.063 348.635C634.543 348.635 633.349 347.441 633.349 345.921V307.925C633.349 306.405 634.543 305.211 636.063 305.211C637.583 305.211 638.777 306.405 638.777 307.925V345.921C638.777 347.441 637.583 348.635 636.063 348.635Z" fill="#B5CDFB"></path>
<path d="M636.063 291.966C634.543 291.966 633.349 290.772 633.349 289.252V255.816C633.349 254.296 634.543 253.102 636.063 253.102C637.583 253.102 638.777 254.296 638.777 255.816V289.252C638.777 290.772 637.583 291.966 636.063 291.966Z" fill="#B5CDFB"></path>
<path d="M489.183 530.576C487.664 530.576 486.469 529.382 486.469 527.862V489.866C486.469 488.346 487.664 487.152 489.183 487.152C490.703 487.152 491.897 488.346 491.897 489.866V527.862C491.897 529.273 490.703 530.576 489.183 530.576Z" fill="#B5CDFB"></path>
<path d="M489.183 473.8C487.664 473.8 486.469 472.605 486.469 471.086V395.745C486.469 394.225 487.664 393.031 489.183 393.031C490.703 393.031 491.897 394.225 491.897 395.745V471.086C491.897 472.605 490.703 473.8 489.183 473.8Z" fill="#B5CDFB"></path>
<path d="M51.47 161.909C51.2528 161.909 50.9272 161.801 50.71 161.692C49.9501 161.258 49.6244 160.281 49.9501 159.521C51.2528 156.915 53.6411 154.961 56.3551 154.201C59.0691 153.441 62.0002 153.984 64.4971 155.613C65.257 156.155 65.4741 157.132 64.9313 157.892C64.3885 158.652 63.4115 158.869 62.6516 158.327C60.9146 157.241 58.9606 156.915 57.1151 157.35C55.2695 157.892 53.7497 159.195 52.7727 161.041C52.6641 161.583 52.1213 161.909 51.47 161.909Z" fill="#8c1e19"></path>
<path d="M56.0298 172.442C46.9108 172.442 38.5517 166.146 36.272 156.918C33.6666 145.954 40.3973 134.989 51.2532 132.275C62.1092 129.67 73.1823 136.4 75.7877 147.256C78.3931 158.112 71.6624 169.185 60.8065 171.791C59.1781 172.225 57.6582 172.442 56.0298 172.442ZM56.0298 134.989C54.7271 134.989 53.3159 135.098 52.0131 135.423C42.8941 137.595 37.249 146.822 39.4202 156.05C41.5914 165.169 50.819 170.814 60.0465 168.643C69.1656 166.472 74.8107 157.244 72.6395 148.016C70.6854 140.309 63.7376 134.989 56.0298 134.989Z" fill="#8c1e19"></path>
<path d="M49.1904 152.573C50.6893 152.573 51.9044 151.357 51.9044 149.859C51.9044 148.36 50.6893 147.145 49.1904 147.145C47.6915 147.145 46.4764 148.36 46.4764 149.859C46.4764 151.357 47.6915 152.573 49.1904 152.573Z" fill="#8c1e19"></path>
<path d="M61.132 149.752C62.6308 149.752 63.8459 148.537 63.8459 147.038C63.8459 145.539 62.6308 144.324 61.132 144.324C59.6331 144.324 58.418 145.539 58.418 147.038C58.418 148.537 59.6331 149.752 61.132 149.752Z" fill="#8c1e19"></path>
<path d="M162.851 203.49C162.2 203.49 161.766 203.055 161.766 202.404V87.2223C161.766 86.571 162.2 86.1367 162.851 86.1367C163.503 86.1367 163.937 86.571 163.937 87.2223V202.404C163.937 202.947 163.394 203.49 162.851 203.49Z" fill="#8c1e19"></path>
<path d="M195.419 217.166C194.768 217.166 194.334 216.731 194.334 216.08V106.109C194.334 105.458 194.768 105.023 195.419 105.023C196.071 105.023 196.505 105.458 196.505 106.109V216.188C196.505 216.731 195.962 217.166 195.419 217.166Z" fill="#8c1e19"></path>
<path d="M227.987 228.133C227.336 228.133 226.902 227.699 226.902 227.048V119.574C226.902 118.923 227.336 118.488 227.987 118.488C228.639 118.488 229.073 118.923 229.073 119.574V227.048C229.073 227.591 228.53 228.133 227.987 228.133Z" fill="#8c1e19"></path>
<path d="M260.555 243.111C259.904 243.111 259.47 242.677 259.47 242.026V106.109C259.47 105.458 259.904 105.023 260.555 105.023C261.206 105.023 261.641 105.458 261.641 106.109V242.134C261.641 242.677 261.098 243.111 260.555 243.111Z" fill="#8c1e19"></path>
<path d="M274.995 116.421H145.592C144.941 116.421 144.507 115.987 144.507 115.336C144.507 114.684 144.941 114.25 145.592 114.25H274.995C275.647 114.25 276.081 114.684 276.081 115.336C276.081 115.987 275.538 116.421 274.995 116.421Z" fill="#8c1e19"></path>
<path d="M274.995 148.988H145.592C144.941 148.988 144.507 148.553 144.507 147.902C144.507 147.251 144.941 146.816 145.592 146.816H274.995C275.647 146.816 276.081 147.251 276.081 147.902C276.081 148.553 275.538 148.988 274.995 148.988Z" fill="#8c1e19"></path>
<path d="M274.995 181.558H145.592C144.941 181.558 144.507 181.124 144.507 180.472C144.507 179.821 144.941 179.387 145.592 179.387H274.995C275.647 179.387 276.081 179.821 276.081 180.472C276.081 181.124 275.538 181.558 274.995 181.558Z" fill="#8c1e19"></path>
<path d="M274.995 214.124H145.592C144.941 214.124 144.507 213.69 144.507 213.039C144.507 212.387 144.941 211.953 145.592 211.953H274.995C275.647 211.953 276.081 212.387 276.081 213.039C276.081 213.69 275.538 214.124 274.995 214.124Z" fill="#8c1e19"></path>
<path d="M177.509 140.742C172.732 140.742 168.932 136.834 168.932 132.166C168.932 127.389 172.841 123.59 177.509 123.59C182.177 123.59 186.085 127.498 186.085 132.166C186.193 136.834 182.285 140.742 177.509 140.742ZM177.509 124.567C173.383 124.567 170.018 127.932 170.018 132.057C170.018 136.183 173.383 139.548 177.509 139.548C181.634 139.548 184.999 136.183 184.999 132.057C184.999 127.932 181.743 124.567 177.509 124.567Z" fill="#f5a623"></path>
<path d="M243.73 205.223C238.953 205.223 235.154 201.315 235.154 196.647C235.154 191.978 239.062 188.07 243.73 188.07C248.507 188.07 252.306 191.978 252.306 196.647C252.306 201.315 248.507 205.223 243.73 205.223ZM243.73 189.047C239.605 189.047 236.239 192.413 236.239 196.538C236.239 200.663 239.605 204.029 243.73 204.029C247.855 204.029 251.221 200.663 251.221 196.538C251.221 192.413 247.964 189.047 243.73 189.047Z" fill="#f5a623"></path>
<path d="M184.239 202.944C184.13 202.944 183.913 202.944 183.805 202.836L172.189 191.22C171.972 191.003 171.972 190.677 172.189 190.46C172.406 190.243 172.732 190.243 172.949 190.46L184.565 202.076C184.782 202.293 184.782 202.618 184.565 202.836C184.565 202.836 184.456 202.944 184.239 202.944Z" fill="#f5a623"></path>
<path d="M172.623 202.944C172.515 202.944 172.297 202.944 172.189 202.836C171.972 202.618 171.972 202.293 172.189 202.076L183.805 190.46C184.022 190.243 184.348 190.243 184.565 190.46C184.782 190.677 184.782 191.003 184.565 191.22L172.949 202.836C172.949 202.836 172.732 202.944 172.623 202.944Z" fill="#f5a623"></path>
<path d="M218.001 171.03C217.892 171.03 217.675 171.03 217.566 170.921L205.95 159.306C205.733 159.088 205.733 158.763 205.95 158.546C206.168 158.329 206.493 158.329 206.71 158.546L218.326 170.162C218.543 170.379 218.543 170.704 218.326 170.921C218.218 170.921 218.109 171.03 218.001 171.03Z" fill="#f5a623"></path>
<path d="M206.385 171.03C206.276 171.03 206.059 171.03 205.95 170.921C205.733 170.704 205.733 170.379 205.95 170.162L217.566 158.546C217.783 158.329 218.109 158.329 218.326 158.546C218.543 158.763 218.543 159.088 218.326 159.306L206.71 170.813C206.602 170.921 206.493 171.03 206.385 171.03Z" fill="#f5a623"></path>
</svg>
